<svg width="275" height="215" viewBox="0 0 275 215" fill="none" xmlns="http://www.w3.org/2000/svg">
<circle cx="246.713" cy="83.5542" r="18" fill="#374785" fill-opacity="0.9"/>
<path d="M59.3695 18.9449C73.7134 18.9449 86.5751 7.55428 108.713 29.0543C118.804 49.9893 73.7134 38.0543 86.5751 70.5407C96.6514 95.9916 57.2558 54.1323 17.2134 55.0543C7.12245 34.1193 38.4334 29.0364 59.3695 18.9449Z" fill="#A8D1E7" fill-opacity="0.8"/>
<path d="M187.713 147.054C175.213 199.554 94.2134 170.054 52.7134 170.054C25.0992 170.054 12.7134 147.054 2.71341 96.5542C-3.23383 66.5206 -4.28659 34.266 52.7134 54.5542C170.713 96.5542 193.785 121.554 187.713 147.054Z" fill="#F76C6C" fill-opacity="0.9"/>
<g clip-path="url(#clip0_51_138)">
<path d="M185.299 212.663L137.155 128.498C137.142 128.292 137.076 128.093 136.964 127.917C136.852 127.742 136.697 127.596 136.513 127.492C136.302 127.375 136.061 127.318 135.817 127.329C135.81 127.329 135.802 127.329 135.794 127.329C135.786 127.329 135.778 127.329 135.771 127.329C135.441 127.314 135.119 127.424 134.87 127.634C134.622 127.844 134.467 128.14 134.438 128.458L83.4131 212.663C83.328 212.806 83.2728 212.963 83.2505 213.127C83.2283 213.29 83.2394 213.456 83.2834 213.615C83.3273 213.775 83.4032 213.924 83.5067 214.055C83.6102 214.185 83.7392 214.295 83.8864 214.378C84.0336 214.46 84.1962 214.514 84.3647 214.535C84.5332 214.557 84.7045 214.546 84.8687 214.503C85.0329 214.46 85.1868 214.387 85.3216 214.286C85.4564 214.186 85.5695 214.061 85.6545 213.918L135.76 131.231L183.058 213.918C183.143 214.061 183.256 214.186 183.391 214.286C183.525 214.387 183.679 214.46 183.844 214.503C184.008 214.546 184.179 214.557 184.348 214.535C184.516 214.514 184.679 214.46 184.826 214.378C184.973 214.295 185.102 214.185 185.206 214.055C185.309 213.924 185.385 213.775 185.429 213.615C185.473 213.456 185.484 213.29 185.462 213.127C185.439 212.963 185.384 212.806 185.299 212.663Z" fill="#3F3D56"/>
<path d="M127.817 198.223L133.258 197.012L131.032 176.084L123.001 177.871L127.817 198.223Z" fill="#FFB6B6"/>
<path d="M132.024 188.113L124.28 189.835L121.803 185.143L121.663 184.977C120.565 183.669 119.955 182.04 119.933 180.354L113.497 163.845L112.97 163.602C112.563 163.414 112.202 163.144 111.911 162.81C111.62 162.477 111.406 162.086 111.283 161.666C111.16 161.245 111.13 160.804 111.197 160.372C111.264 159.939 111.425 159.526 111.67 159.158L110.988 157.411L91.7605 157.445L91.7413 157.44L68.1297 151.018L70.609 136.688L77.2508 140.739C79.4394 140.601 116.93 138.369 120.394 146.516C123.478 153.771 127.923 166.165 131.108 175.285C131.267 175.695 131.464 176.089 131.698 176.463C132.193 177.203 132.484 178.054 132.542 178.935C132.58 179.318 132.655 179.697 132.767 180.066C134.091 183.904 132.074 188.011 132.054 188.053L132.024 188.113Z" fill="#2F2E41"/>
<path d="M125.978 196.473L127.747 196.079L134.011 191.819L138.357 193.719L138.358 193.719C140.45 193.254 142.647 193.613 144.466 194.719C146.285 195.824 147.576 197.585 148.056 199.613L148.115 199.862L127.847 204.371L125.978 196.473Z" fill="#2F2E41"/>
<path d="M45.6317 196.943C46.1849 191.104 49.7124 185.257 55.3701 183.187C53.3125 189.243 53.5305 195.81 55.9857 201.726C56.941 204.004 58.2483 206.441 57.4984 208.791C57.0319 210.252 55.81 211.398 54.4262 212.133C53.0423 212.869 51.4919 213.247 49.9608 213.618L49.6655 213.871C47.0404 208.588 45.0784 202.782 45.6317 196.943Z" fill="#F0F0F0"/>
<path d="M55.4305 183.295C52.2191 187.018 50.2992 191.627 49.9434 196.469C49.8478 197.509 49.9219 198.558 50.1631 199.577C50.4312 200.562 50.9663 201.459 51.7129 202.175C52.3952 202.857 53.1745 203.478 53.6741 204.308C53.9233 204.737 54.0762 205.212 54.1228 205.702C54.1694 206.192 54.1086 206.686 53.9444 207.152C53.5664 208.323 52.7771 209.292 51.9712 210.214C51.0765 211.238 50.1304 212.287 49.7798 213.618C49.7373 213.779 49.4817 213.706 49.5241 213.545C50.1342 211.229 52.3879 209.855 53.4149 207.754C53.8941 206.774 54.0715 205.648 53.5586 204.645C53.1101 203.768 52.307 203.127 51.61 202.443C50.8711 201.754 50.3173 200.901 49.997 199.957C49.7031 198.954 49.5874 197.909 49.6549 196.868C49.7683 194.522 50.2614 192.208 51.1161 190.011C52.0772 187.498 53.4746 185.163 55.2478 183.106C55.3576 182.979 55.5396 183.168 55.4305 183.295L55.4305 183.295Z" fill="white"/>
<path d="M49.9634 194.903C49.1338 194.735 48.3928 194.286 47.8728 193.637C47.3529 192.988 47.0877 192.181 47.1248 191.36C47.1266 191.327 47.1418 191.296 47.1671 191.273C47.1924 191.25 47.2258 191.237 47.2604 191.238C47.2949 191.239 47.3279 191.252 47.3523 191.276C47.3768 191.3 47.3908 191.332 47.3914 191.365C47.3554 192.13 47.6025 192.881 48.0879 193.485C48.5734 194.088 49.2653 194.503 50.0388 194.655C50.2068 194.689 50.1305 194.936 49.9634 194.903H49.9634Z" fill="white"/>
<path d="M51.32 201.874C52.7783 200.967 53.8303 199.56 54.2665 197.934C54.3095 197.773 54.5651 197.847 54.5221 198.008C54.065 199.699 52.9671 201.16 51.4475 202.101C51.3026 202.191 51.1759 201.963 51.32 201.874H51.32Z" fill="white"/>
<path d="M52.3325 187.735C52.6395 187.865 52.975 187.919 53.3088 187.892C53.6426 187.865 53.9643 187.758 54.245 187.581C54.3887 187.49 54.5152 187.717 54.3725 187.808C54.0614 188.002 53.706 188.12 53.3372 188.15C52.9685 188.181 52.5976 188.123 52.2571 187.983C52.2239 187.972 52.196 187.95 52.1793 187.92C52.1626 187.89 52.1581 187.855 52.167 187.822C52.1771 187.789 52.2002 187.762 52.2312 187.745C52.2622 187.729 52.2986 187.725 52.3325 187.735H52.3325Z" fill="white"/>
<path d="M73.1509 193.031C73.0629 193.091 72.9748 193.15 72.8868 193.212C71.7075 194.018 70.5976 194.915 69.5682 195.895C69.4874 195.97 69.4066 196.046 69.3282 196.123C66.874 198.509 64.8981 201.317 63.501 204.403C62.9462 205.631 62.4886 206.899 62.1321 208.195C61.6399 209.984 61.2531 211.963 60.2107 213.446C60.1037 213.602 59.9869 213.752 59.8609 213.894L50.0064 214.201C49.9837 214.19 49.9609 214.182 49.938 214.172L49.5451 214.202C49.5587 214.134 49.5743 214.063 49.5878 213.995C49.5955 213.956 49.6054 213.916 49.6131 213.877C49.619 213.85 49.6249 213.824 49.6286 213.8C49.6305 213.791 49.6325 213.782 49.6345 213.776C49.6382 213.752 49.6443 213.73 49.6481 213.708C49.7341 213.314 49.8231 212.921 49.9151 212.527C49.915 212.525 49.915 212.525 49.9171 212.523C50.5885 209.518 51.6251 206.601 53.0052 203.833C53.0475 203.751 53.0897 203.667 53.1365 203.584C53.7775 202.358 54.5207 201.185 55.3588 200.076C55.8197 199.47 56.312 198.887 56.8337 198.33C58.1845 196.892 59.7602 195.669 61.5029 194.706C64.9774 192.786 69.0464 191.966 72.8603 192.953C72.9578 192.979 73.0533 193.004 73.1509 193.031Z" fill="#F0F0F0"/>
<path d="M73.1328 193.154C68.2569 194.251 63.8618 196.811 60.5716 200.469C59.8489 201.244 59.2568 202.125 58.8169 203.079C58.4195 204.022 58.2896 205.051 58.4409 206.058C58.5625 207.001 58.7994 207.951 58.6825 208.906C58.6153 209.394 58.4424 209.863 58.1752 210.281C57.9081 210.7 57.5527 211.059 57.1324 211.335C56.1036 212.049 54.8716 212.362 53.6557 212.628C52.3057 212.923 50.8987 213.208 49.7923 214.066C49.6583 214.17 49.4997 213.962 49.6336 213.859C51.5586 212.366 54.2117 212.584 56.3359 211.506C57.3271 211.003 58.1681 210.208 58.3813 209.108C58.5677 208.145 58.3243 207.165 58.1927 206.212C58.0303 205.231 58.1181 204.226 58.4484 203.285C58.8367 202.313 59.3929 201.411 60.0932 200.619C61.6403 198.813 63.4708 197.253 65.5177 195.997C67.8455 194.552 70.4112 193.503 73.1038 192.897C73.2704 192.859 73.2983 193.116 73.1328 193.153V193.154Z" fill="white"/>
<path d="M61.5595 199.23C61.0016 198.612 60.6885 197.821 60.6763 196.999C60.6641 196.178 60.9535 195.379 61.4929 194.745C61.6025 194.617 61.8126 194.776 61.7028 194.904C61.1995 195.493 60.9299 196.238 60.9429 197.003C60.9559 197.768 61.2506 198.504 61.7737 199.077C61.8872 199.201 61.6724 199.354 61.5595 199.231V199.23Z" fill="white"/>
<path d="M58.3143 205.588C60.0419 205.715 61.7554 205.206 63.1131 204.163C63.2475 204.059 63.4061 204.267 63.2718 204.371C61.8569 205.454 60.0726 205.98 58.2752 205.844C58.1039 205.831 58.144 205.575 58.3143 205.588V205.588Z" fill="white"/>
<path d="M67.9022 194.89C68.0666 195.173 68.301 195.412 68.5842 195.585C68.8675 195.759 69.1907 195.861 69.5248 195.884C69.6962 195.895 69.656 196.15 69.4857 196.139C69.1166 196.113 68.7598 195.999 68.4464 195.808C68.133 195.617 67.8727 195.355 67.688 195.044C67.6681 195.016 67.6599 194.982 67.665 194.948C67.6702 194.915 67.6883 194.884 67.7157 194.863C67.7442 194.843 67.7797 194.834 67.8146 194.839C67.8496 194.844 67.881 194.863 67.9022 194.89H67.9022Z" fill="white"/>
<path d="M206.861 196.943C206.307 191.104 202.78 185.257 197.122 183.187C199.18 189.243 198.962 195.81 196.507 201.726C195.551 204.004 194.244 206.441 194.994 208.791C195.46 210.252 196.682 211.398 198.066 212.133C199.45 212.869 201 213.247 202.531 213.618L202.827 213.871C205.452 208.588 207.414 202.782 206.861 196.943Z" fill="#F0F0F0"/>
<path d="M197.062 183.295C200.273 187.018 202.193 191.627 202.549 196.469C202.644 197.509 202.57 198.558 202.329 199.577C202.061 200.562 201.526 201.459 200.779 202.175C200.097 202.857 199.318 203.478 198.818 204.308C198.569 204.737 198.416 205.212 198.369 205.702C198.323 206.192 198.384 206.686 198.548 207.152C198.926 208.323 199.715 209.292 200.521 210.214C201.416 211.238 202.362 212.287 202.712 213.618C202.755 213.779 203.011 213.706 202.968 213.545C202.358 211.229 200.104 209.855 199.077 207.754C198.598 206.774 198.421 205.648 198.934 204.645C199.382 203.768 200.185 203.127 200.882 202.443C201.621 201.754 202.175 200.901 202.495 199.957C202.789 198.954 202.905 197.909 202.837 196.868C202.724 194.522 202.231 192.208 201.376 190.011C200.415 187.498 199.018 185.163 197.244 183.106C197.135 182.979 196.953 183.168 197.062 183.295L197.062 183.295Z" fill="white"/>
<path d="M202.529 194.903C203.358 194.735 204.099 194.286 204.619 193.637C205.139 192.988 205.405 192.181 205.367 191.36C205.366 191.327 205.351 191.295 205.325 191.273C205.3 191.25 205.266 191.237 205.232 191.238C205.197 191.239 205.164 191.252 205.14 191.276C205.115 191.3 205.101 191.332 205.101 191.365C205.137 192.13 204.89 192.881 204.404 193.485C203.919 194.088 203.227 194.503 202.453 194.655C202.285 194.689 202.362 194.936 202.529 194.903Z" fill="white"/>
<path d="M201.172 201.874C199.714 200.967 198.662 199.56 198.226 197.934C198.183 197.773 197.927 197.847 197.97 198.008C198.427 199.699 199.525 201.16 201.045 202.101C201.19 202.191 201.316 201.963 201.172 201.874H201.172Z" fill="white"/>
<path d="M200.16 187.735C199.853 187.865 199.517 187.919 199.183 187.892C198.85 187.865 198.528 187.758 198.247 187.581C198.104 187.49 197.977 187.717 198.12 187.808C198.431 188.002 198.786 188.12 199.155 188.15C199.524 188.181 199.895 188.123 200.235 187.983C200.268 187.972 200.296 187.95 200.313 187.92C200.33 187.89 200.334 187.855 200.325 187.822C200.315 187.789 200.292 187.762 200.261 187.745C200.23 187.729 200.194 187.725 200.16 187.735H200.16Z" fill="white"/>
<path d="M179.341 193.031C179.429 193.091 179.517 193.15 179.605 193.212C180.785 194.018 181.895 194.915 182.924 195.895C183.005 195.97 183.086 196.046 183.164 196.123C185.618 198.509 187.594 201.317 188.991 204.403C189.546 205.631 190.004 206.899 190.36 208.195C190.852 209.984 191.239 211.963 192.282 213.446C192.389 213.602 192.505 213.752 192.631 213.894L202.486 214.201C202.509 214.19 202.531 214.182 202.554 214.172L202.947 214.202C202.934 214.134 202.918 214.063 202.904 213.995C202.897 213.956 202.887 213.916 202.879 213.877C202.873 213.85 202.867 213.824 202.864 213.8C202.862 213.791 202.86 213.782 202.858 213.776C202.854 213.752 202.848 213.73 202.844 213.708C202.758 213.314 202.669 212.921 202.577 212.527C202.577 212.525 202.577 212.525 202.575 212.523C201.904 209.518 200.867 206.601 199.487 203.833C199.445 203.751 199.403 203.667 199.356 203.584C198.715 202.358 197.972 201.185 197.133 200.076C196.673 199.47 196.18 198.887 195.659 198.33C194.308 196.892 192.732 195.669 190.989 194.706C187.515 192.786 183.446 191.966 179.632 192.953C179.534 192.979 179.439 193.004 179.341 193.031Z" fill="#F0F0F0"/>
<path d="M179.359 193.154C184.235 194.251 188.63 196.811 191.921 200.469C192.643 201.244 193.235 202.125 193.675 203.079C194.073 204.022 194.203 205.051 194.051 206.058C193.93 207.001 193.693 207.951 193.81 208.906C193.877 209.394 194.05 209.863 194.317 210.281C194.584 210.7 194.94 211.059 195.36 211.335C196.389 212.049 197.621 212.362 198.837 212.628C200.186 212.923 201.594 213.208 202.7 214.066C202.834 214.17 202.992 213.962 202.859 213.859C200.934 212.366 198.281 212.584 196.156 211.506C195.165 211.003 194.324 210.208 194.111 209.108C193.925 208.145 194.168 207.165 194.3 206.212C194.462 205.231 194.374 204.226 194.044 203.285C193.656 202.313 193.099 201.411 192.399 200.619C190.852 198.813 189.021 197.253 186.975 195.997C184.647 194.552 182.081 193.503 179.388 192.897C179.222 192.859 179.194 193.116 179.359 193.153V193.154Z" fill="white"/>
<path d="M190.933 199.23C191.491 198.612 191.804 197.821 191.816 196.999C191.828 196.178 191.539 195.379 190.999 194.745C190.89 194.617 190.68 194.776 190.789 194.904C191.293 195.493 191.562 196.238 191.549 197.003C191.536 197.768 191.242 198.504 190.719 199.077C190.605 199.201 190.82 199.354 190.933 199.231V199.23Z" fill="white"/>
<path d="M194.178 205.588C192.45 205.715 190.737 205.206 189.379 204.163C189.245 204.059 189.086 204.267 189.22 204.371C190.635 205.454 192.42 205.98 194.217 205.844C194.388 205.831 194.348 205.575 194.178 205.588V205.588Z" fill="white"/>
<path d="M184.59 194.89C184.426 195.173 184.191 195.412 183.908 195.585C183.625 195.759 183.302 195.861 182.967 195.884C182.796 195.895 182.836 196.15 183.007 196.139C183.376 196.113 183.732 195.999 184.046 195.808C184.359 195.617 184.62 195.355 184.804 195.044C184.824 195.016 184.832 194.982 184.827 194.948C184.822 194.915 184.804 194.884 184.777 194.863C184.748 194.843 184.713 194.834 184.678 194.839C184.643 194.844 184.611 194.863 184.59 194.89H184.59Z" fill="white"/>
<path d="M275 214.668C275 214.756 274.964 214.84 274.9 214.903C274.835 214.965 274.749 215 274.658 215H18.3423C18.2516 215 18.1645 214.965 18.1004 214.903C18.0362 214.841 18.0001 214.756 18.0001 214.668C18.0001 214.58 18.0362 214.496 18.1004 214.434C18.1645 214.371 18.2516 214.336 18.3423 214.336H274.658C274.749 214.337 274.835 214.372 274.9 214.434C274.964 214.496 275 214.58 275 214.668Z" fill="#3F3D56"/>
<path d="M183.1 86.3063C183.815 86.3063 184.394 85.7445 184.394 85.0515C184.394 84.3585 183.815 83.7968 183.1 83.7968C182.385 83.7968 181.806 84.3585 181.806 85.0515C181.806 85.7445 182.385 86.3063 183.1 86.3063Z" fill="#3F3D56"/>
<path d="M166.896 94.7168L184.342 84.0889C184.5 83.9928 184.676 83.9286 184.86 83.9004C185.044 83.8721 185.232 83.8803 185.413 83.9245C185.594 83.9687 185.763 84.048 185.912 84.1575C186.06 84.2671 186.184 84.4046 186.276 84.5618C186.368 84.7191 186.426 84.8927 186.446 85.0723C186.467 85.252 186.45 85.4338 186.396 85.6068C186.343 85.7799 186.253 85.9406 186.134 86.0792C186.014 86.2178 185.867 86.3315 185.701 86.4134L167.334 95.466C167.232 95.5163 167.114 95.5265 167.004 95.4945C166.894 95.4625 166.802 95.3908 166.745 95.2943C166.689 95.1978 166.673 95.0839 166.701 94.9764C166.729 94.8688 166.799 94.7758 166.896 94.7168V94.7168Z" fill="#E4E4E4"/>
<path d="M131.895 117.601C131.757 117.403 131.686 117.169 131.689 116.93C131.693 116.692 131.771 116.46 131.915 116.265C132.21 115.882 132.603 115.58 133.055 115.388C133.989 114.928 134.994 114.62 136.031 114.477C136.819 114.368 137.679 114.333 138.291 113.839C138.898 113.348 139.237 112.43 140.023 112.353C140.784 112.279 141.369 113.087 142.132 113.137C143.072 113.198 143.687 112.132 144.602 111.913C145.215 111.766 145.844 112.025 146.419 112.277L149.866 113.794L151.633 114.571C152.25 114.843 152.946 115.208 153.062 115.856C153.223 116.745 152.202 117.373 151.33 117.688C145.101 119.917 138.256 119.918 132.027 117.691" fill="#F9A826"/>
<path d="M137.088 133.988C162.103 133.988 182.381 131.179 182.381 127.714C182.381 124.249 162.103 121.44 137.088 121.44C112.073 121.44 91.7951 124.249 91.7951 127.714C91.7951 131.179 112.073 133.988 137.088 133.988Z" fill="#3F3D56"/>
<path d="M228.968 166.613H197.91C196.481 166.613 195.322 167.736 195.322 169.122C195.322 170.508 196.481 171.632 197.91 171.632H228.968C230.398 171.632 231.556 170.508 231.556 169.122C231.556 167.736 230.398 166.613 228.968 166.613Z" fill="#3F3D56"/>
<path d="M244.02 121.87L233.762 169.119L236.434 181.213L241.478 204.036V214.295C241.478 214.309 241.477 214.323 241.475 214.336C241.473 214.563 241.43 214.788 241.348 215H237.294C237.212 214.788 237.169 214.563 237.167 214.336C237.165 214.323 237.164 214.309 237.164 214.295V204.477L232.586 183.761L231.66 179.579L229.868 171.473L229.351 169.125V169.122L229.863 166.769L230.257 164.954L239.798 121.011C239.856 120.742 239.968 120.487 240.128 120.26C240.288 120.033 240.492 119.838 240.729 119.688C240.967 119.538 241.232 119.434 241.51 119.383C241.789 119.332 242.075 119.335 242.352 119.392C242.63 119.448 242.893 119.557 243.127 119.712C243.361 119.867 243.561 120.066 243.716 120.296C243.871 120.526 243.977 120.783 244.029 121.053C244.082 121.323 244.078 121.601 244.02 121.87L244.02 121.87Z" fill="#3F3D56"/>
<path d="M200.067 169.122V214.295C200.067 214.309 200.067 214.323 200.064 214.336C200.062 214.563 200.02 214.788 199.938 215H195.883C195.801 214.788 195.758 214.563 195.756 214.336C195.754 214.323 195.753 214.309 195.753 214.295V169.122C195.753 168.568 195.981 168.036 196.385 167.643C196.79 167.251 197.338 167.031 197.91 167.031C198.482 167.031 199.031 167.251 199.435 167.643C199.84 168.036 200.067 168.568 200.067 169.122Z" fill="#3F3D56"/>
<path d="M203.087 161.594H223.792C225.851 161.594 227.826 162.387 229.282 163.799C230.738 165.211 231.556 167.126 231.556 169.122H195.322C195.322 167.126 196.14 165.211 197.596 163.799C199.052 162.387 201.027 161.594 203.087 161.594Z" fill="#3F3D56"/>
<path d="M234.145 183.761H197.91C197.338 183.761 196.79 183.541 196.385 183.149C195.981 182.757 195.753 182.225 195.753 181.67C195.753 181.115 195.981 180.584 196.385 180.191C196.79 179.799 197.338 179.579 197.91 179.579H234.145C234.717 179.579 235.265 179.799 235.67 180.191C236.074 180.584 236.301 181.115 236.301 181.67C236.301 182.225 236.074 182.757 235.67 183.149C235.265 183.541 234.717 183.761 234.145 183.761Z" fill="#3F3D56"/>
<path d="M65.5996 171.708H102.148C103.577 171.708 104.736 170.584 104.736 169.198V168.438C104.736 167.052 103.577 165.928 102.148 165.928H65.5996C64.1702 165.928 63.0114 167.052 63.0114 168.438V169.198C63.0114 170.584 64.1702 171.708 65.5996 171.708Z" fill="#3F3D56"/>
<path d="M65.2232 168.852L64.5617 171.495L62.1345 181.177L61.0879 185.359L56.2277 204.761V213.179C56.229 213.591 56.1028 213.994 55.8655 214.336C55.6789 214.613 55.4251 214.841 55.1265 215H53.0156C52.7169 214.841 52.4632 214.613 52.2765 214.336C52.0391 213.994 51.9129 213.591 51.9141 213.179V204.259L57.3149 182.705L60.8003 168.785L48.9809 114.341C48.9225 114.072 48.9192 113.795 48.9712 113.525C49.0233 113.255 49.1298 112.998 49.2845 112.768C49.4392 112.538 49.6392 112.34 49.873 112.185C50.1068 112.029 50.3698 111.921 50.647 111.864C50.9242 111.808 51.2101 111.805 51.4885 111.856C51.7668 111.906 52.0321 112.01 52.2692 112.16C52.5063 112.31 52.7105 112.505 52.8701 112.731C53.0298 112.958 53.1417 113.213 53.1996 113.482L64.1247 163.794L64.6279 166.114L65.2145 168.818L65.2232 168.852Z" fill="#3F3D56"/>
<path d="M103.914 168.818V213.179C103.915 213.591 103.789 213.994 103.551 214.336C103.364 214.613 103.111 214.841 102.812 215H100.698C100.401 214.84 100.149 214.612 99.9622 214.336C99.7248 213.994 99.5986 213.591 99.5999 213.179V168.818C99.5999 168.264 99.8271 167.732 100.232 167.34C100.636 166.947 101.185 166.727 101.757 166.727C102.329 166.727 102.877 166.947 103.282 167.34C103.686 167.732 103.914 168.264 103.914 168.818Z" fill="#3F3D56"/>
<path d="M104.736 168.818H63.0114V167.677C63.0114 166.689 63.2123 165.71 63.6025 164.796C63.9927 163.883 64.5646 163.053 65.2856 162.354C66.0066 161.655 66.8626 161.1 67.8046 160.722C68.7466 160.343 69.7563 160.149 70.7759 160.149H96.9714C99.0307 160.149 101.006 160.942 102.462 162.354C103.918 163.766 104.736 165.681 104.736 167.677V168.818H104.736Z" fill="#3F3D56"/>
<path d="M101.756 185.358H60.0311C59.4591 185.358 58.9105 185.138 58.506 184.746C58.1015 184.354 57.8743 183.822 57.8743 183.267C57.8743 182.712 58.1015 182.18 58.506 181.788C58.9105 181.396 59.4591 181.176 60.0311 181.176H101.756C102.328 181.176 102.876 181.396 103.281 181.788C103.685 182.18 103.912 182.712 103.912 183.267C103.912 183.822 103.685 184.354 103.281 184.746C102.876 185.138 102.328 185.358 101.756 185.358Z" fill="#3F3D56"/>
<path d="M155.378 203.601L150.845 201.499L157.072 183.126L163.763 186.229L155.378 203.601Z" fill="#9E616A"/>
<path d="M186.1 201.937L181.225 203.103L174.163 185.021L181.357 183.3L186.1 201.937Z" fill="#9E616A"/>
<path d="M167.417 123.745C168.063 124.764 169.095 125.496 170.291 125.787C171.487 126.078 172.753 125.904 173.819 125.303C174.033 125.177 174.236 125.034 174.426 124.876L188.758 132.851L188.135 124.664L174.621 118.346C173.886 117.63 172.926 117.171 171.893 117.04C170.859 116.91 169.81 117.115 168.91 117.625C168.392 117.927 167.941 118.326 167.585 118.799C167.228 119.272 166.972 119.81 166.833 120.38C166.694 120.951 166.674 121.542 166.774 122.12C166.874 122.698 167.093 123.251 167.417 123.745Z" fill="#9E616A"/>
<path d="M182.596 129.848L185.13 131.345L196.507 138.072C197.255 138.526 198.087 138.832 198.956 138.973C199.826 139.114 200.715 139.088 201.574 138.896C202.433 138.704 203.245 138.349 203.962 137.853C204.68 137.356 205.29 136.727 205.756 136.002C206.599 134.656 206.897 133.056 206.593 131.509L201.536 107.012C201.349 106.051 200.951 105.139 200.367 104.341C199.784 103.542 199.029 102.876 198.156 102.386C197.282 101.896 196.309 101.595 195.305 101.503C194.3 101.411 193.286 101.531 192.334 101.854C190.732 102.4 189.406 103.516 188.623 104.977C187.841 106.437 187.662 108.132 188.122 109.716L193.41 127.101L185.305 123.437L182.596 129.848Z" fill="#E6E6E6"/>
<path d="M176.606 196.87L168.806 181.701L168.807 181.666L169.577 153.845C169.587 153.597 169.608 153.349 169.639 153.104C169.775 151.989 170.139 150.91 170.709 149.933C171.279 148.955 172.044 148.097 172.96 147.409C173.837 146.743 174.842 146.254 175.916 145.969C176.99 145.684 178.111 145.61 179.216 145.75L201.52 148.548L202.293 145.482L202.437 145.431L223.808 137.836L223.932 138.031C226.73 142.447 228.687 151.267 229.22 153.865L229.228 153.903C229.239 153.958 229.246 153.991 229.248 154.001C230.348 158.434 225.802 165.779 221.274 166.883C211.735 169.241 203.204 167.402 193.326 165.272C189.784 164.508 186.123 163.719 182.09 163.036L182.21 165.337C182.309 167.108 182.688 168.854 183.335 170.513C184.054 172.555 184.622 174.168 183.421 177.53L182.84 179.157C183.142 179.964 183.245 180.829 183.143 181.682C183.041 182.535 182.736 183.353 182.252 184.072L182.136 184.246L187.28 196.867L176.606 196.87Z" fill="#2F2E41"/>
<path d="M163.791 190.162L154.489 189.323L157.784 179.105C158.464 172.432 160.178 165.898 162.867 159.72L167.362 149.392C167.372 149.162 167.392 148.93 167.421 148.704C167.557 147.588 167.921 146.51 168.491 145.532C169.061 144.554 169.826 143.696 170.742 143.008C171.619 142.343 172.624 141.854 173.698 141.569C174.772 141.285 175.894 141.21 176.998 141.35L199.269 144.144L200.239 136.25L221.616 133.476L221.714 133.631C225.45 139.525 227.822 144.14 229.179 148.154C229.247 148.358 229.308 148.567 229.359 148.775C230.467 153.239 227.702 157.765 223.195 158.863C211.711 161.702 197.901 161.624 179.744 158.614L170.956 178.891C170.117 180.828 169.077 182.678 167.853 184.411L163.791 190.162Z" fill="#2F2E41"/>
<path d="M196.236 87.7951C202.187 87.7951 207.011 83.0134 207.011 77.1149C207.011 71.2163 202.187 66.4346 196.236 66.4346C190.285 66.4346 185.461 71.2163 185.461 77.1149C185.461 83.0134 190.285 87.7951 196.236 87.7951Z" fill="#9E616A"/>
<path d="M199.347 144.517L197.801 139.147L197.421 136.498L195.199 136.57L190.838 126.809L189.144 124.236C188.799 123.883 188.486 123.544 188.205 123.218C186.44 121.284 185.025 119.074 184.019 116.683C183.315 114.965 182.901 113.147 182.794 111.301C182.478 105.848 184.849 100.078 190.043 93.663C189.957 93.436 189.901 93.1998 189.873 92.9597C189.781 92.1804 190.009 91.3971 190.509 90.7802C191.008 90.1633 191.739 89.7626 192.542 89.6654L197.551 89.12C197.941 89.0772 198.335 89.11 198.711 89.2164C199.088 89.3228 199.438 89.5007 199.743 89.7398C200.061 89.9871 200.326 90.2933 200.521 90.6407C200.716 90.988 200.837 91.3695 200.879 91.7629C200.946 92.3714 200.822 92.9854 200.524 93.525C203.078 93.8393 205.483 94.8612 207.453 96.468C209.422 98.0749 210.872 100.199 211.628 102.584C214.625 108.01 217.014 113.732 218.754 119.651C219.097 120.81 218.944 122.005 218.796 123.16C218.66 124.227 218.519 125.331 218.756 126.431C218.997 127.549 219.578 128.672 220.192 129.86C220.896 131.22 221.624 132.627 221.821 134.062L221.835 134.162L199.347 144.517Z" fill="#E4E4E4"/>
<path opacity="0.2" d="M184.153 116.63C185.154 119.008 186.561 121.205 188.315 123.129C188.616 123.476 188.933 123.818 189.265 124.161L190.97 126.754C197.253 122.187 202.343 104.207 202.343 104.207L195.254 102.87L184.153 116.63Z" fill="black"/>
<path d="M179.861 88.7929C180.481 89.8268 180.662 91.0548 180.363 92.2155C180.064 93.3763 179.31 94.3782 178.261 95.0082C178.046 95.133 177.82 95.2402 177.587 95.3289L178.089 111.344L170.936 106.978L171.556 92.4393C171.252 91.4718 171.286 90.4338 171.654 89.4874C172.022 88.5409 172.703 87.7392 173.59 87.2074C174.107 86.9042 174.682 86.7046 175.279 86.6202C175.877 86.5359 176.486 86.5686 177.071 86.7164C177.655 86.8642 178.203 87.1241 178.683 87.4808C179.162 87.8374 179.562 88.2836 179.861 88.7929Z" fill="#9E616A"/>
<path d="M178.717 105.299L170.852 106.383L171.19 122.177C171.209 123.304 171.526 124.407 172.109 125.382C172.692 126.357 173.523 127.171 174.522 127.747C175.742 128.443 177.163 128.736 178.57 128.581C179.977 128.426 181.294 127.832 182.322 126.888L200.892 109.568C202.199 108.367 202.981 106.725 203.077 104.981C203.174 103.237 202.577 101.524 201.411 100.194C200.834 99.5311 200.125 98.9878 199.327 98.5959C198.529 98.204 197.659 97.9716 196.766 97.9123C195.874 97.8531 194.978 97.9683 194.133 98.251C193.287 98.5338 192.509 98.9784 191.844 99.5584C191.661 99.7175 191.486 99.886 191.321 100.063L179.059 113.741L178.717 105.299Z" fill="#E6E6E6"/>
<path d="M112.93 208.318L118.513 208.318L121.169 187.437L112.929 187.438L112.93 208.318Z" fill="#FFB6B6"/>
<path d="M81.284 88.1052C87.4382 88.1052 92.4271 83.2678 92.4271 77.3005C92.4271 71.3333 87.4382 66.4958 81.284 66.4958C75.1299 66.4958 70.1409 71.3333 70.1409 77.3005C70.1409 83.2678 75.1299 88.1052 81.284 88.1052Z" fill="#FFB6B6"/>
<path d="M120.335 201.886H112.429L110.413 199.266L109.868 196.798L109.398 196.358C108.761 195.765 108.349 194.981 108.229 194.132C108.109 193.284 108.288 192.421 108.737 191.684L103.007 165.763C101.507 165.635 84.5825 164.167 72.8181 162.149C69.8073 161.632 67.4567 160.213 65.8313 157.931C61.8376 152.323 63.5484 143.25 63.5661 143.159L63.5858 143.057L63.6914 143.046L91.1705 140.055L91.2075 140.072C92.1194 140.491 113.581 150.37 117.088 153.771C118.672 155.307 122.206 164.43 122.997 174.13C123.138 175.868 122.628 177.638 122.135 179.349C121.674 180.95 121.197 182.606 121.291 184.171C121.436 186.587 121.574 189.12 121.701 191.702C121.721 192.113 122.04 192.539 122.35 192.95C122.672 193.38 122.977 193.787 122.997 194.212C123.185 198.334 120.406 201.798 120.378 201.833L120.335 201.886Z" fill="#2F2E41"/>
<path d="M122.135 106.079C121.536 105.92 120.909 105.891 120.298 105.992C119.686 106.094 119.105 106.325 118.595 106.668C118.085 107.011 117.659 107.458 117.347 107.978C117.035 108.498 116.844 109.078 116.788 109.678L107.529 112.484L107.916 118.355L120.933 114.214C121.978 114.239 122.995 113.891 123.793 113.237C124.59 112.582 125.113 111.667 125.261 110.664C125.409 109.661 125.173 108.641 124.597 107.796C124.02 106.95 123.145 106.34 122.135 106.079V106.079Z" fill="#FFB6B6"/>
<path d="M116.094 115.795L109.174 118.334L108.997 118.667C108.573 119.465 107.839 120.067 106.958 120.34C106.076 120.614 105.118 120.536 104.295 120.125L88.7415 125.833C88.7415 125.833 81.7957 119.093 76.8505 113.078L78.5359 103.027C78.9263 100.694 79.7559 98.4519 80.9835 96.4109C91.1251 98.5672 96.9468 112.314 96.9468 112.314L115.225 108.932L116.094 115.795Z" fill="#F9A826"/>
<path d="M79.7005 87.5276C76.9109 88.2582 73.8354 87.2869 71.6583 85.4445C69.4813 83.6022 68.1194 80.9916 67.3347 78.295C66.76 76.3201 66.4876 74.1278 67.3944 72.2738C68.3013 70.4197 70.7421 69.1688 72.6251 70.1054C71.4635 68.7931 72.0438 66.6226 73.4005 65.5C74.7572 64.3774 76.6201 64.0555 78.3944 63.8796C80.9694 63.6243 83.6292 63.5957 86.0795 64.4046C88.5298 65.2135 90.7561 66.9819 91.523 69.379C92.3062 69.7326 93.1883 69.8244 94.031 69.6399C94.8738 69.4554 95.6296 69.0051 96.1802 68.3595C96.3222 69.1009 96.2082 69.8671 95.8558 70.5394C95.5035 71.2117 94.9325 71.7527 94.2311 72.0787L97.9854 70.8984C98.6311 72.2236 97.4997 73.8637 96.053 74.2881C94.6062 74.7124 93.0445 74.2486 91.6716 73.6355C90.2987 73.0224 88.9682 72.2473 87.4769 72.0082C85.9857 71.7691 84.234 72.2337 83.5442 73.5378C83.1829 74.2208 83.164 75.0208 82.9543 75.761C82.7445 76.5012 82.2132 77.2686 81.4239 77.3292C80.9253 77.3675 80.4371 77.1099 79.9399 77.1626C79.3235 77.2279 78.8517 77.7693 78.6875 78.3491C78.5637 78.94 78.5622 79.5488 78.6831 80.1402L79.6367 87.2083" fill="#2F2E41"/>
<path d="M65.8954 159.222C65.8933 159.222 65.8912 159.222 65.8891 159.221L65.801 159.207L65.7755 159.124C65.4551 158.079 65.0475 157.009 64.6532 155.975C64.0726 154.543 63.5823 153.077 63.1851 151.587C62.8726 150.162 62.6558 148.72 62.5363 147.268C62.4263 146.214 62.3126 145.123 62.1192 144.05C62.0333 143.574 62.3588 143.123 62.6735 142.686C62.9653 142.282 63.2409 141.9 63.183 141.538C63.1239 141.169 62.7011 140.763 62.2922 140.37C61.8441 139.94 61.3806 139.494 61.315 139.026C60.4218 132.635 60.006 126.19 60.071 119.74C60.1633 110.817 60.5792 104.735 61.307 101.663C63.2642 93.4017 72.3065 91.894 73.7218 91.7079C73.8725 91.3186 74.1043 90.9635 74.4027 90.6648C74.7011 90.3661 75.0597 90.1301 75.4561 89.9716C75.8526 89.813 76.2785 89.7353 76.7073 89.7432C77.1361 89.7512 77.5587 89.8446 77.9486 90.0177L84.3733 92.8694C85.6765 93.4499 86.8427 94.2841 87.7994 95.3201C88.756 96.3561 89.4828 97.5718 89.9344 98.8916L90.8888 101.713L91.3668 120.652L88.7176 133.988L93.8939 141.517C66.3058 156.203 65.9842 159.222 65.8954 159.222Z" fill="#F9A826"/>
<path d="M109.925 206.214L111.741 206.214L118.827 203.42L122.626 206.214H122.626C124.773 206.214 126.832 207.041 128.349 208.513C129.867 209.984 130.72 211.98 130.72 214.062V214.317L109.926 214.317L109.925 206.214Z" fill="#2F2E41"/>
<path d="M124.453 119.593C123.918 119.289 123.32 119.102 122.703 119.045C122.085 118.989 121.462 119.064 120.877 119.267C120.293 119.469 119.761 119.793 119.32 120.216C118.879 120.639 118.538 121.151 118.323 121.715L108.63 122.082L107.324 126.46L121.104 127.144C122.106 127.431 123.182 127.353 124.128 126.923C125.074 126.493 125.824 125.742 126.237 124.811C126.65 123.88 126.696 122.835 126.368 121.874C126.039 120.912 125.358 120.101 124.453 119.593Z" fill="#FFB6B6"/>
<path d="M116.491 127.616L106.535 127.495L105.274 127.479L85.0172 127.231C85.0172 127.231 79.5163 122.143 74.7263 116.903L75.3977 112.195C76.0526 107.574 78.4166 103.341 82.05 100.284C88.9103 104.729 92.8888 113.527 92.8888 113.527L99.5596 116.421C104.254 116.625 108.829 117.924 112.895 120.208L115.089 121.44L116.491 127.616Z" fill="#F9A826"/>
<path d="M189.656 210.844L186.344 211.636L184.98 208.745L184.238 212.14L175.451 214.243C175.03 214.344 174.587 214.311 174.186 214.15C173.785 213.99 173.448 213.709 173.223 213.349C172.999 212.989 172.898 212.569 172.938 212.15C172.977 211.731 173.153 211.335 173.44 211.02L179.261 204.642L178.481 201.576L185.97 200.237L189.656 210.844Z" fill="#2F2E41"/>
<path d="M154.56 211.835L151.401 210.585L152.055 207.469L149.393 209.79L141.014 206.474C140.612 206.315 140.274 206.035 140.047 205.677C139.821 205.318 139.719 204.898 139.756 204.479C139.793 204.06 139.967 203.663 140.253 203.347C140.539 203.031 140.921 202.811 141.345 202.721L149.923 200.888L151.153 197.964L158.02 201.157L154.56 211.835Z" fill="#2F2E41"/>
<path d="M143.559 126.599H140.97C138.187 126.596 135.52 125.523 133.552 123.615C131.584 121.706 130.477 119.12 130.474 116.421V116.282H154.055V116.421C154.052 119.12 152.945 121.706 150.977 123.615C149.009 125.523 146.341 126.596 143.559 126.599Z" fill="#E4E4E4"/>
<path d="M140.97 112.657C140.97 113.35 139.676 113.912 139.676 113.912C139.676 113.912 138.382 113.35 138.382 112.657C138.382 111.964 139.676 111.402 139.676 111.402C139.676 111.402 140.97 111.964 140.97 112.657Z" fill="#3F3D56"/>
<path d="M148.735 112.657C148.735 113.35 147.441 113.912 147.441 113.912C147.441 113.912 146.147 113.35 146.147 112.657C146.147 111.964 147.441 111.402 147.441 111.402C147.441 111.402 148.735 111.964 148.735 112.657Z" fill="#3F3D56"/>
<path d="M143.559 115.166C143.559 115.859 142.264 116.421 142.264 116.421C142.264 116.421 140.97 115.859 140.97 115.166C140.97 114.473 142.264 113.912 142.264 113.912C142.264 113.912 143.559 114.473 143.559 115.166Z" fill="#3F3D56"/>
<path d="M134.5 110.008C135.215 110.008 135.794 109.446 135.794 108.753C135.794 108.06 135.215 107.498 134.5 107.498C133.785 107.498 133.206 108.06 133.206 108.753C133.206 109.446 133.785 110.008 134.5 110.008Z" fill="#3F3D56"/>
<path d="M115.679 106.056L136.089 108.79C136.274 108.814 136.452 108.875 136.611 108.968C136.771 109.061 136.91 109.185 137.019 109.331C137.128 109.478 137.205 109.644 137.246 109.821C137.287 109.997 137.291 110.179 137.257 110.357C137.223 110.535 137.153 110.704 137.049 110.855C136.946 111.005 136.813 111.134 136.657 111.233C136.501 111.332 136.326 111.399 136.142 111.431C135.959 111.463 135.771 111.458 135.589 111.417L115.518 106.903C115.407 106.878 115.309 106.813 115.247 106.72C115.184 106.627 115.161 106.514 115.181 106.405C115.202 106.296 115.266 106.199 115.358 106.134C115.451 106.069 115.566 106.041 115.679 106.056Z" fill="#E4E4E4"/>
<path d="M140.481 43.7029V6H137.893V43.7029C134.357 44.0158 131.069 45.599 128.674 48.1417C126.28 50.6844 124.952 54.0031 124.952 57.4462V61.2106H134.011C134.011 62.5417 134.556 63.8184 135.527 64.7597C136.497 65.7009 137.814 66.2297 139.187 66.2297C140.56 66.2297 141.876 65.7009 142.847 64.7597C143.818 63.8184 144.363 62.5417 144.363 61.2106H153.422V57.4462C153.421 54.0031 152.094 50.6845 149.7 48.1417C147.305 45.599 144.017 44.0158 140.481 43.7029Z" fill="#F0F0F0"/>
<path d="M173.804 34.2772V6H171.863V34.2772C169.21 34.5119 166.745 35.6992 164.949 37.6063C163.153 39.5133 162.157 42.0023 162.157 44.5847V47.4079H168.951C168.951 48.4063 169.36 49.3638 170.088 50.0697C170.816 50.7757 171.804 51.1723 172.833 51.1723C173.863 51.1723 174.85 50.7757 175.578 50.0697C176.307 49.3638 176.716 48.4063 176.716 47.4079H183.509V44.5847C183.509 42.0023 182.513 39.5133 180.718 37.6063C178.922 35.6992 176.456 34.5119 173.804 34.2772Z" fill="#F0F0F0"/>
<path d="M108.237 34.2772V6H106.296V34.2772C103.643 34.5119 101.177 35.6992 99.3817 37.6063C97.586 39.5133 96.5903 42.0023 96.59 44.5847V47.4079H103.384C103.384 48.4063 103.793 49.3638 104.521 50.0697C105.249 50.7757 106.237 51.1723 107.266 51.1723C108.296 51.1723 109.283 50.7757 110.011 50.0697C110.739 49.3638 111.148 48.4063 111.148 47.4079H117.942V44.5847C117.942 42.0023 116.946 39.5133 115.151 37.6063C113.355 35.6992 110.889 34.5119 108.237 34.2772Z" fill="#F0F0F0"/>
<path d="M225.068 72.4828C223.236 70.4118 222.366 67.6642 220.902 65.3126C219.437 62.9609 216.89 60.8562 214.198 61.4035C212.342 61.7807 210.908 63.3683 210.182 65.1383C209.457 66.9082 209.321 68.8601 209.193 70.7723C209.238 66.8427 206.568 63.0331 202.89 61.7792C199.212 60.5253 194.811 61.924 192.5 65.081C191.491 64.1746 190.175 63.6585 188.8 63.6305C187.425 63.6025 186.087 64.0646 185.04 64.9292C182.973 66.7207 182.516 70.1305 184.036 72.4156C185.556 74.7007 188.849 75.552 191.265 74.2846L192.119 75.0465C191.638 76.677 192.57 78.603 194.138 79.2168C195.409 79.7146 197.203 79.6317 197.679 80.925C198.011 81.8286 197.39 82.7931 196.729 83.4875C196.068 84.1819 195.284 84.8989 195.204 85.8598C195.085 87.3096 196.63 88.3252 198.034 88.6311C201.421 89.3687 205.179 87.8479 207.131 84.9497C207.169 84.8939 207.21 84.8379 207.254 84.7819C208.349 83.4238 209.147 81.8635 209.6 80.1963C210.052 78.529 210.149 76.7899 209.885 75.0851C209.775 74.4153 209.886 73.917 210.362 73.7584C212.42 73.0727 218.188 74.5118 219.934 75.8124C221.679 77.113 223.077 78.8343 224.759 80.2188C226.44 81.6034 228.583 82.6714 230.718 82.2944C232.428 81.9924 233.882 80.7888 234.861 79.3369C235.839 77.8851 236.402 76.1928 236.906 74.511C233.125 76.6288 227.951 75.7423 225.068 72.4828Z" fill="#2F2E41"/>
</g>
<defs>
<clipPath id="clip0_51_138">
<rect width="257" height="209" fill="white" transform="translate(18 6)"/>
</clipPath>
</defs>
</svg>
