<svg width="12" height="12" viewBox="0 0 12 12" fill="none" xmlns="http://www.w3.org/2000/svg">
<path d="M0.329385 0.329385C0.540353 0.11848 0.82645 0 1.12476 0C1.42307 0 1.70917 0.11848 1.92014 0.329385L5.89813 4.30738L9.87613 0.329385C10.0883 0.124457 10.3725 0.0110632 10.6675 0.0136264C10.9624 0.0161896 11.2446 0.134505 11.4532 0.343089C11.6618 0.551673 11.7801 0.833837 11.7826 1.12881C11.7852 1.42378 11.6718 1.70796 11.4669 1.92014L7.48888 5.89813L11.4669 9.87613C11.6718 10.0883 11.7852 10.3725 11.7826 10.6675C11.7801 10.9624 11.6618 11.2446 11.4532 11.4532C11.2446 11.6618 10.9624 11.7801 10.6675 11.7826C10.3725 11.7852 10.0883 11.6718 9.87613 11.4669L5.89813 7.48888L1.92014 11.4669C1.70796 11.6718 1.42378 11.7852 1.12881 11.7826C0.833837 11.7801 0.551673 11.6618 0.343089 11.4532C0.134505 11.2446 0.0161896 10.9624 0.0136264 10.6675C0.0110632 10.3725 0.124457 10.0883 0.329385 9.87613L4.30738 5.89813L0.329385 1.92014C0.11848 1.70917 0 1.42307 0 1.12476C0 0.82645 0.11848 0.540353 0.329385 0.329385Z" fill="#24305E"/>
</svg>
