<svg width="25" height="20" viewBox="0 0 25 20" fill="none" xmlns="http://www.w3.org/2000/svg">
<path fill-rule="evenodd" clip-rule="evenodd" d="M7.14366 18.0939C7.14366 17.8413 7.23773 17.5991 7.40516 17.4205C7.5726 17.242 7.79969 17.1416 8.03648 17.1416H24.1072C24.344 17.1416 24.5711 17.242 24.7385 17.4205C24.9059 17.5991 25 17.8413 25 18.0939C25 18.3464 24.9059 18.5886 24.7385 18.7672C24.5711 18.9458 24.344 19.0461 24.1072 19.0461H8.03648C7.79969 19.0461 7.5726 18.9458 7.40516 18.7672C7.23773 18.5886 7.14366 18.3464 7.14366 18.0939ZM7.14366 10.4761C7.14366 10.2236 7.23773 9.98137 7.40516 9.80279C7.5726 9.62421 7.79969 9.52389 8.03648 9.52389H24.1072C24.344 9.52389 24.5711 9.62421 24.7385 9.80279C24.9059 9.98137 25 10.2236 25 10.4761C25 10.7287 24.9059 10.9709 24.7385 11.1494C24.5711 11.328 24.344 11.4283 24.1072 11.4283H8.03648C7.79969 11.4283 7.5726 11.328 7.40516 11.1494C7.23773 10.9709 7.14366 10.7287 7.14366 10.4761ZM7.14366 2.85836C7.14366 2.60581 7.23773 2.36361 7.40516 2.18504C7.5726 2.00646 7.79969 1.90614 8.03648 1.90614H24.1072C24.344 1.90614 24.5711 2.00646 24.7385 2.18504C24.9059 2.36361 25 2.60581 25 2.85836C25 3.1109 24.9059 3.3531 24.7385 3.53168C24.5711 3.71025 24.344 3.81058 24.1072 3.81058H8.03648C7.79969 3.81058 7.5726 3.71025 7.40516 3.53168C7.23773 3.3531 7.14366 3.1109 7.14366 2.85836ZM5.09733 0.27975C5.18047 0.368203 5.24644 0.473281 5.29145 0.588967C5.33646 0.704652 5.35962 0.828671 5.35962 0.953921C5.35962 1.07917 5.33646 1.20319 5.29145 1.31888C5.24644 1.43456 5.18047 1.53964 5.09733 1.62809L2.41888 4.48475C2.33594 4.57343 2.23742 4.64378 2.12895 4.69179C2.02048 4.73979 1.9042 4.7645 1.78676 4.7645C1.66933 4.7645 1.55304 4.73979 1.44457 4.69179C1.33611 4.64378 1.23758 4.57343 1.15465 4.48475L0.26183 3.53253C0.17882 3.444 0.112972 3.33889 0.0680474 3.22322C0.0231225 3.10754 1.23695e-09 2.98356 0 2.85836C-1.23695e-09 2.73315 0.0231225 2.60917 0.0680474 2.4935C0.112972 2.37783 0.17882 2.27272 0.26183 2.18419C0.344841 2.09565 0.443389 2.02543 0.551847 1.97751C0.660305 1.9296 0.77655 1.90494 0.893945 1.90494C1.01134 1.90494 1.12758 1.9296 1.23604 1.97751C1.3445 2.02543 1.44305 2.09565 1.52606 2.18419L1.78676 2.46414L3.8331 0.27975C3.91603 0.191073 4.01456 0.120718 4.12302 0.0727139C4.23149 0.0247098 4.34778 0 4.46521 0C4.58265 0 4.69893 0.0247098 4.8074 0.0727139C4.91587 0.120718 5.01439 0.191073 5.09733 0.27975V0.27975ZM5.09733 7.8975C5.18047 7.98595 5.24644 8.09103 5.29145 8.20672C5.33646 8.3224 5.35962 8.44642 5.35962 8.57167C5.35962 8.69692 5.33646 8.82094 5.29145 8.93663C5.24644 9.05231 5.18047 9.15739 5.09733 9.24584L2.41888 12.1025C2.33594 12.1912 2.23742 12.2615 2.12895 12.3095C2.02048 12.3575 1.9042 12.3822 1.78676 12.3822C1.66933 12.3822 1.55304 12.3575 1.44457 12.3095C1.33611 12.2615 1.23758 12.1912 1.15465 12.1025L0.26183 11.1503C0.0941833 10.9715 0 10.729 0 10.4761C0 10.2232 0.0941833 9.98074 0.26183 9.80194C0.429478 9.62314 0.656856 9.52269 0.893945 9.52269C1.13103 9.52269 1.35841 9.62314 1.52606 9.80194L1.78676 10.0819L3.8331 7.8975C3.91603 7.80882 4.01456 7.73847 4.12302 7.69047C4.23149 7.64246 4.34778 7.61775 4.46521 7.61775C4.58265 7.61775 4.69893 7.64246 4.8074 7.69047C4.91587 7.73847 5.01439 7.80882 5.09733 7.8975V7.8975ZM5.09733 15.5153C5.18047 15.6037 5.24644 15.7088 5.29145 15.8245C5.33646 15.9402 5.35962 16.0642 5.35962 16.1894C5.35962 16.3147 5.33646 16.4387 5.29145 16.5544C5.24644 16.6701 5.18047 16.7751 5.09733 16.8636L2.41888 19.7203C2.33594 19.8089 2.23742 19.8793 2.12895 19.9273C2.02048 19.9753 1.9042 20 1.78676 20C1.66933 20 1.55304 19.9753 1.44457 19.9273C1.33611 19.8793 1.23758 19.8089 1.15465 19.7203L0.26183 18.768C0.0941833 18.5892 0 18.3467 0 18.0939C0 17.841 0.0941833 17.5985 0.26183 17.4197C0.429478 17.2409 0.656856 17.1404 0.893945 17.1404C1.13103 17.1404 1.35841 17.2409 1.52606 17.4197L1.78676 17.6996L3.8331 15.5153C3.91603 15.4266 4.01456 15.3562 4.12302 15.3082C4.23149 15.2602 4.34778 15.2355 4.46521 15.2355C4.58265 15.2355 4.69893 15.2602 4.8074 15.3082C4.91587 15.3562 5.01439 15.4266 5.09733 15.5153V15.5153Z" fill="#D0D0D0"/>
</svg>
