<svg width="24" height="23" viewBox="0 0 24 23" fill="none" xmlns="http://www.w3.org/2000/svg">
<path d="M24 11.4783C24.0122 17.8144 18.6203 22.9955 12.0087 23C9.15314 23.0019 6.53017 22.048 4.46893 20.4537C3.93295 20.0392 3.89288 19.2694 4.37995 18.8026L4.92512 18.2801C5.34169 17.8809 6.00672 17.8372 6.46824 18.1881C7.98686 19.343 9.90875 20.0323 12 20.0323C16.9212 20.0323 20.9032 16.2154 20.9032 11.5C20.9032 6.78385 16.9204 2.96775 12 2.96775C9.63802 2.96775 7.49278 3.84736 5.89993 5.28315L8.35577 7.63666C8.84351 8.10408 8.49807 8.90324 7.80836 8.90324H0.774193C0.346596 8.90324 0 8.57109 0 8.16131V1.42021C0 0.759233 0.833902 0.42819 1.32164 0.895564L3.71061 3.185C5.86495 1.21195 8.78477 0 12 0C18.6198 0 23.9877 5.13699 24 11.4783ZM15.2462 15.1316L15.7215 14.5459C16.1153 14.0607 16.024 13.3615 15.5178 12.9842L13.5484 11.5162V6.67743C13.5484 6.06278 13.0285 5.56453 12.3871 5.56453H11.6129C10.9715 5.56453 10.4516 6.06278 10.4516 6.67743V12.9677L13.6166 15.3268C14.1228 15.7041 14.8524 15.6168 15.2462 15.1316Z" fill="#24305E"/>
</svg>
